<mxfile host="app.diagrams.net" modified="2024-02-17T00:24:28.473Z" agent="Mozilla/5.0 (Windows NT 10.0; Win64; x64) AppleWebKit/537.36 (KHTML, like Gecko) Chrome/121.0.0.0 Safari/537.36 Edg/121.0.0.0" etag="fksg5uuhCN4HfATMFMdh" version="23.1.5" type="device">
  <diagram name="PÃ¡gina-1" id="tGj4Ydvy0hPiDAabrjXZ">
    <mxGraphModel dx="1064" dy="1233" grid="0" gridSize="10" guides="1" tooltips="1" connect="1" arrows="1" fold="1" page="0" pageScale="1" pageWidth="827" pageHeight="1169" math="0" shadow="0">
      <root>
        <mxCell id="0" />
        <mxCell id="1" parent="0" />
        <mxCell id="53xWLjRsvplks7Fpuj7T-9" style="edgeStyle=none;curved=1;rounded=0;orthogonalLoop=1;jettySize=auto;html=1;exitX=1;exitY=0.5;exitDx=0;exitDy=0;entryX=0;entryY=0.5;entryDx=0;entryDy=0;fontSize=12;startSize=8;endSize=8;" edge="1" parent="1" source="53xWLjRsvplks7Fpuj7T-1" target="53xWLjRsvplks7Fpuj7T-6">
          <mxGeometry relative="1" as="geometry" />
        </mxCell>
        <mxCell id="53xWLjRsvplks7Fpuj7T-14" value="1" style="edgeLabel;html=1;align=center;verticalAlign=middle;resizable=0;points=[];fontSize=12;" vertex="1" connectable="0" parent="53xWLjRsvplks7Fpuj7T-9">
          <mxGeometry x="-0.0579" relative="1" as="geometry">
            <mxPoint as="offset" />
          </mxGeometry>
        </mxCell>
        <mxCell id="53xWLjRsvplks7Fpuj7T-1" value="CLIENTE" style="rounded=0;whiteSpace=wrap;html=1;" vertex="1" parent="1">
          <mxGeometry x="-106" y="-123" width="120" height="60" as="geometry" />
        </mxCell>
        <mxCell id="53xWLjRsvplks7Fpuj7T-2" value="" style="rounded=0;whiteSpace=wrap;html=1;" vertex="1" parent="1">
          <mxGeometry x="108" y="150" width="120" height="60" as="geometry" />
        </mxCell>
        <mxCell id="53xWLjRsvplks7Fpuj7T-11" style="edgeStyle=none;curved=1;rounded=0;orthogonalLoop=1;jettySize=auto;html=1;exitX=0.5;exitY=1;exitDx=0;exitDy=0;entryX=0.5;entryY=0;entryDx=0;entryDy=0;fontSize=12;startSize=8;endSize=8;" edge="1" parent="1" source="53xWLjRsvplks7Fpuj7T-3" target="53xWLjRsvplks7Fpuj7T-7">
          <mxGeometry relative="1" as="geometry" />
        </mxCell>
        <mxCell id="53xWLjRsvplks7Fpuj7T-16" value="N" style="edgeLabel;html=1;align=center;verticalAlign=middle;resizable=0;points=[];fontSize=12;" vertex="1" connectable="0" parent="53xWLjRsvplks7Fpuj7T-11">
          <mxGeometry x="-0.3387" y="-1" relative="1" as="geometry">
            <mxPoint as="offset" />
          </mxGeometry>
        </mxCell>
        <mxCell id="53xWLjRsvplks7Fpuj7T-3" value="PEDIDO" style="rounded=0;whiteSpace=wrap;html=1;" vertex="1" parent="1">
          <mxGeometry x="311" y="-123" width="120" height="60" as="geometry" />
        </mxCell>
        <mxCell id="53xWLjRsvplks7Fpuj7T-10" style="edgeStyle=none;curved=1;rounded=0;orthogonalLoop=1;jettySize=auto;html=1;exitX=1;exitY=0.5;exitDx=0;exitDy=0;entryX=0;entryY=0.5;entryDx=0;entryDy=0;fontSize=12;startSize=8;endSize=8;" edge="1" parent="1" source="53xWLjRsvplks7Fpuj7T-6" target="53xWLjRsvplks7Fpuj7T-3">
          <mxGeometry relative="1" as="geometry" />
        </mxCell>
        <mxCell id="53xWLjRsvplks7Fpuj7T-15" value="N" style="edgeLabel;html=1;align=center;verticalAlign=middle;resizable=0;points=[];fontSize=12;" vertex="1" connectable="0" parent="53xWLjRsvplks7Fpuj7T-10">
          <mxGeometry x="-0.0833" y="2" relative="1" as="geometry">
            <mxPoint as="offset" />
          </mxGeometry>
        </mxCell>
        <mxCell id="53xWLjRsvplks7Fpuj7T-6" value="" style="rhombus;whiteSpace=wrap;html=1;" vertex="1" parent="1">
          <mxGeometry x="135" y="-133" width="80" height="80" as="geometry" />
        </mxCell>
        <mxCell id="53xWLjRsvplks7Fpuj7T-17" style="edgeStyle=orthogonalEdgeStyle;rounded=0;orthogonalLoop=1;jettySize=auto;html=1;exitX=0.5;exitY=1;exitDx=0;exitDy=0;fontSize=12;startSize=8;endSize=8;entryX=1;entryY=0.5;entryDx=0;entryDy=0;" edge="1" parent="1" source="53xWLjRsvplks7Fpuj7T-7" target="53xWLjRsvplks7Fpuj7T-2">
          <mxGeometry relative="1" as="geometry">
            <mxPoint x="373" y="192" as="targetPoint" />
          </mxGeometry>
        </mxCell>
        <mxCell id="53xWLjRsvplks7Fpuj7T-18" value="N" style="edgeLabel;html=1;align=center;verticalAlign=middle;resizable=0;points=[];fontSize=12;" vertex="1" connectable="0" parent="53xWLjRsvplks7Fpuj7T-17">
          <mxGeometry x="0.2961" relative="1" as="geometry">
            <mxPoint as="offset" />
          </mxGeometry>
        </mxCell>
        <mxCell id="53xWLjRsvplks7Fpuj7T-7" value="" style="rhombus;whiteSpace=wrap;html=1;" vertex="1" parent="1">
          <mxGeometry x="333" y="64" width="80" height="82" as="geometry" />
        </mxCell>
      </root>
    </mxGraphModel>
  </diagram>
</mxfile>
